<?xml version="1.0" standalone="no"?>
<!DOCTYPE svg PUBLIC "-//W3C//DTD SVG 20010904//EN"
 "http://www.w3.org/TR/2001/REC-SVG-20010904/DTD/svg10.dtd">
<svg version="1.0" xmlns="http://www.w3.org/2000/svg"
 width="2000.000000pt" height="646.000000pt" viewBox="0 0 2000.000000 646.000000"
 preserveAspectRatio="xMidYMid meet">
<metadata>
Created by potrace 1.16, written by Peter Selinger 2001-2019
</metadata>
<g transform="translate(0.000000,646.000000) scale(0.100000,-0.100000)"
fill="#FFFFFF" stroke="none">
<path d="M3880 6375 c-19 -14 -51 -36 -71 -49 -49 -33 -153 -149 -185 -205
-14 -25 -37 -75 -52 -111 -25 -60 -27 -76 -27 -210 0 -119 3 -150 17 -175 10
-16 24 -46 33 -65 8 -19 26 -53 40 -75 36 -58 135 -261 135 -277 0 -7 7 -23
14 -34 8 -12 20 -43 27 -70 6 -27 17 -58 22 -69 11 -21 40 -154 59 -265 13
-79 5 -323 -11 -365 -7 -16 -17 -54 -22 -84 -20 -103 -116 -275 -211 -372 -86
-89 -180 -155 -328 -232 -124 -64 -155 -98 -147 -161 4 -30 15 -48 44 -73 21
-19 65 -59 98 -88 33 -30 83 -69 110 -86 28 -17 61 -39 75 -48 33 -23 156 -81
169 -81 6 0 28 -9 48 -20 21 -11 46 -20 56 -20 10 0 34 -7 55 -16 38 -17 159
-48 247 -64 249 -46 290 -50 560 -50 277 0 383 11 555 56 30 8 78 21 105 28
28 7 59 17 70 23 11 6 45 23 75 37 123 57 215 135 270 231 21 37 32 74 40 140
6 50 16 110 22 135 6 26 11 155 12 300 0 234 -1 262 -22 337 -12 45 -22 92
-22 103 0 33 -72 203 -129 305 -71 128 -246 313 -406 430 -11 8 -33 25 -50 38
-34 26 -74 54 -304 206 -345 231 -510 370 -632 536 -32 44 -62 85 -67 90 -10
13 -62 101 -85 145 -29 57 -67 152 -80 200 -11 40 -15 45 -42 47 -19 2 -43 -7
-65 -22z m1082 -1876 c162 -50 280 -157 349 -319 21 -48 24 -71 24 -180 -1
-135 -9 -163 -78 -266 -44 -65 -134 -127 -226 -157 -276 -88 -602 121 -643
414 -34 240 77 428 297 505 83 29 187 30 277 3z M5002 4089 c-46 -13 -75 -62
-68 -114 7 -58 69 -115 125 -115 81 0 131 83 98 162 -25 59 -88 86 -155 67z
M1945 5905 c-33 -8 -78 -17 -100 -20 -53 -8 -195 -51 -270 -82 -80 -33 -256
-121 -276 -139 -8 -8 -18 -14 -22 -14 -3 0 -26 -14 -49 -30 -24 -17 -54 -38
-68 -47 -163 -110 -435 -399 -571 -608 -96 -147 -100 -154 -179 -315 -79 -160
-100 -206 -100 -219 0 -7 -7 -25 -15 -39 -17 -32 -51 -126 -70 -197 -7 -27
-20 -67 -29 -87 -9 -21 -16 -48 -16 -61 0 -13 -8 -48 -19 -78 -10 -31 -22 -80
-25 -110 -4 -30 -14 -77 -21 -104 -8 -28 -19 -93 -25 -145 -5 -52 -18 -138
-27 -190 -14 -80 -17 -164 -17 -525 0 -401 1 -438 22 -549 12 -65 22 -133 22
-150 0 -17 7 -56 15 -86 8 -30 22 -89 29 -130 8 -41 22 -92 30 -112 9 -21 16
-47 16 -58 0 -12 9 -42 19 -68 11 -26 26 -67 34 -92 49 -147 147 -358 217
-470 16 -25 35 -55 42 -67 87 -146 268 -351 418 -474 57 -46 70 -56 155 -112
76 -49 87 -56 130 -77 22 -11 47 -24 55 -29 27 -18 129 -61 142 -61 7 0 27 -7
43 -16 49 -27 174 -59 365 -95 164 -30 418 -31 585 0 194 35 313 65 371 92 23
10 47 19 53 19 19 0 188 86 249 127 70 46 180 150 241 227 42 54 62 88 128
221 9 17 21 53 29 80 7 28 19 73 27 100 8 28 20 119 28 202 17 209 2 391 -46
538 -17 50 -59 147 -76 175 -5 8 -15 26 -22 40 -49 100 -209 286 -338 393
-261 217 -604 347 -912 347 -97 0 -270 -29 -334 -56 -259 -108 -411 -275 -504
-549 -23 -66 -24 -83 -23 -300 0 -211 2 -235 22 -289 12 -33 22 -69 22 -80 0
-12 8 -37 18 -56 11 -19 22 -47 25 -61 11 -46 98 -191 159 -266 82 -101 172
-174 278 -226 66 -32 210 -67 275 -67 51 0 213 34 260 54 224 99 312 195 365
396 12 45 12 155 0 200 -17 67 -43 135 -62 162 -10 14 -18 30 -18 35 0 15
-114 127 -151 148 -114 65 -274 91 -318 51 -27 -25 -28 -82 -2 -110 56 -60
140 -268 141 -348 0 -51 -38 -131 -77 -163 -37 -29 -41 -30 -144 -30 -97 0
-110 2 -165 30 -57 29 -184 144 -184 167 0 6 -6 19 -14 27 -8 9 -26 51 -40 95
-22 65 -26 98 -26 187 0 181 55 339 156 448 67 73 136 113 233 134 210 47 441
-16 687 -188 55 -39 156 -140 210 -212 30 -39 54 -74 54 -78 0 -3 8 -17 17
-32 49 -74 103 -277 103 -381 0 -70 -37 -259 -61 -311 -74 -165 -143 -256
-278 -364 -85 -68 -171 -115 -301 -165 -118 -46 -320 -77 -414 -63 -97 13
-256 49 -270 60 -6 5 -26 12 -44 16 -30 6 -91 35 -171 81 -19 10 -77 53 -130
95 -82 64 -124 107 -215 219 -7 9 -30 45 -51 80 -21 36 -44 72 -51 80 -7 8
-15 27 -19 42 -4 15 -13 32 -20 38 -8 6 -17 26 -20 43 -4 18 -15 46 -25 62
-10 17 -21 48 -25 70 -4 21 -13 51 -20 65 -7 14 -19 55 -25 90 -6 36 -18 88
-25 115 -41 151 -37 620 6 755 27 81 92 216 127 265 43 59 160 175 252 251
137 112 276 196 475 284 28 12 66 30 86 41 20 10 43 19 51 19 7 0 30 9 51 20
20 11 43 20 49 20 7 0 36 11 63 25 28 13 56 25 62 25 11 0 40 10 193 70 25 9
61 23 80 30 46 16 143 53 205 78 28 11 73 29 100 40 28 11 64 27 80 36 17 9
34 16 39 16 8 0 210 98 251 123 270 159 389 268 517 477 48 78 108 309 108
418 0 98 -78 349 -141 452 -5 8 -14 26 -20 40 -15 37 -97 157 -148 220 -85
102 -201 208 -286 261 -22 13 -49 30 -60 37 -11 7 -36 19 -55 28 -19 9 -53 24
-76 35 -22 10 -47 19 -55 19 -8 0 -23 6 -34 14 -20 13 -84 34 -200 62 -33 8
-89 22 -125 31 -91 23 -479 28 -565 8z M6975 5124 c-81 -12 -124 -26 -205 -63
-75 -35 -161 -94 -205 -141 -16 -17 -42 -38 -56 -46 -24 -12 -28 -11 -45 8
-41 45 -162 136 -208 156 -60 27 -75 27 -136 1 -134 -58 -146 -220 -24 -309
72 -52 116 -95 150 -145 19 -29 34 -57 34 -64 0 -7 8 -26 18 -44 15 -29 17
-79 22 -507 l5 -476 33 -42 c25 -31 46 -45 87 -58 52 -17 56 -16 107 3 42 16
60 29 86 67 l32 48 0 402 c0 454 7 548 45 621 61 118 159 198 287 234 93 26
123 26 216 0 127 -35 214 -105 282 -225 43 -77 50 -163 50 -622 0 -381 1 -405
20 -441 24 -47 54 -73 110 -91 60 -20 136 7 182 64 l33 41 5 475 c6 462 7 476
28 528 12 29 30 65 39 80 22 35 115 132 127 132 5 0 17 7 27 16 22 20 172 64
218 64 51 0 179 -38 225 -68 51 -32 136 -112 136 -128 0 -6 6 -17 14 -23 8 -7
26 -47 40 -90 l26 -78 0 -429 c0 -236 5 -446 9 -468 13 -52 55 -93 117 -113
50 -15 55 -15 101 2 62 23 81 40 104 93 18 41 19 76 19 485 0 400 -2 451 -20
539 -11 54 -24 105 -29 115 -5 10 -23 47 -41 82 -70 141 -219 286 -360 351
-89 41 -120 50 -224 65 -109 16 -123 16 -232 0 -113 -16 -154 -29 -259 -83
-49 -25 -172 -120 -209 -161 -11 -11 -23 -21 -27 -21 -4 0 -34 24 -66 53 -139
127 -263 188 -430 212 -120 17 -138 17 -258 -1z M10001 5124 c-52 -8 -114 -24
-137 -34 -24 -11 -49 -20 -57 -20 -8 0 -26 -9 -40 -20 -14 -11 -29 -20 -35
-20 -13 0 -141 -96 -178 -134 -160 -165 -244 -375 -244 -609 0 -96 26 -270 45
-307 8 -16 15 -37 15 -47 0 -21 84 -189 124 -248 70 -104 250 -278 336 -325
76 -41 178 -90 189 -90 7 0 24 -6 40 -14 36 -19 264 -56 342 -56 59 0 234 22
314 39 96 21 307 106 375 151 14 9 45 30 70 46 83 53 189 144 257 221 127 142
127 143 156 94 27 -46 159 -174 218 -212 91 -59 102 -65 169 -93 75 -31 249
-66 329 -66 130 0 312 49 434 117 95 53 97 51 97 -70 0 -310 -189 -535 -475
-565 -115 -12 -161 -34 -202 -96 -53 -78 -40 -150 39 -222 l40 -36 127 4 c97
3 142 9 196 27 86 28 167 67 220 104 22 15 51 35 65 44 66 43 157 151 232 273
31 50 70 162 89 253 17 83 19 140 19 607 0 467 -2 524 -19 607 -19 91 -58 203
-89 253 -82 134 -183 246 -274 306 -146 96 -333 154 -498 154 -165 0 -352 -58
-500 -155 -105 -69 -233 -218 -287 -335 -47 -101 -57 -128 -74 -205 -36 -163
-72 -269 -112 -325 -9 -13 -17 -29 -17 -35 0 -20 -115 -169 -176 -227 -115
-111 -204 -168 -369 -238 -66 -28 -282 -70 -358 -70 -113 0 -263 47 -410 126
-39 22 -195 181 -213 218 -8 17 -21 42 -29 56 -50 87 -88 229 -89 335 0 72 30
201 56 234 10 13 18 30 18 37 0 20 119 136 170 165 47 28 190 69 237 69 46 0
163 -38 207 -66 84 -55 134 -127 159 -226 21 -83 21 -105 1 -154 -21 -50 -40
-72 -86 -95 -49 -25 -89 -24 -122 2 -34 26 -33 77 0 94 42 21 54 37 54 75 0
31 -7 44 -35 69 -45 39 -87 40 -156 6 -70 -36 -105 -78 -123 -150 -28 -113 17
-238 113 -314 42 -33 146 -71 199 -71 48 0 188 38 229 63 63 38 167 149 197
211 57 116 58 336 3 468 -69 165 -209 309 -372 381 -58 26 -219 58 -280 56
-16 -1 -72 -7 -124 -15z m2418 -355 c100 -28 174 -71 242 -139 68 -69 108
-140 138 -244 36 -120 20 -240 -47 -374 -33 -65 -134 -170 -199 -207 -60 -34
-203 -75 -263 -75 -60 0 -203 41 -264 76 -196 111 -304 362 -246 575 30 111
65 174 140 249 136 136 323 188 499 139z M14080 5124 c-80 -13 -152 -34 -230
-68 -8 -3 -33 -17 -55 -31 -22 -13 -56 -33 -77 -44 -20 -11 -38 -24 -40 -28
-1 -5 -21 -23 -42 -42 -134 -115 -252 -323 -275 -486 -28 -190 -4 -401 60
-527 97 -193 191 -295 379 -410 91 -56 293 -108 420 -108 75 0 274 33 294 49
6 5 29 14 51 21 22 7 51 21 64 31 13 11 30 19 37 19 19 0 152 109 200 163 23
26 47 47 53 47 6 0 45 -32 87 -71 42 -38 88 -77 103 -86 14 -9 35 -24 46 -34
11 -9 43 -24 71 -33 48 -16 55 -16 100 0 56 19 80 37 101 78 29 57 33 86 17
134 -19 56 -42 83 -111 128 -80 54 -150 138 -192 234 -23 50 -25 68 -25 200
-1 138 1 148 27 204 37 78 105 165 162 207 87 64 116 92 131 128 41 95 -9 203
-107 232 -40 13 -112 6 -145 -14 -62 -36 -114 -76 -178 -138 -39 -38 -76 -69
-82 -69 -6 0 -45 33 -87 74 -79 78 -125 112 -217 157 -106 52 -156 68 -268 83
-132 19 -147 19 -272 0z m260 -354 c105 -28 175 -65 240 -130 75 -74 112 -131
143 -223 52 -148 28 -313 -65 -448 -42 -61 -122 -138 -169 -163 -13 -7 -33
-17 -44 -24 -43 -24 -162 -52 -220 -52 -72 0 -198 35 -269 76 -61 34 -169 142
-186 186 -7 18 -19 40 -26 48 -7 8 -22 62 -34 118 l-22 104 21 93 c29 132 70
208 160 292 25 24 61 50 81 59 19 9 41 22 49 28 21 17 170 54 221 55 25 0 79
-8 120 -19z M2760 3450 c-36 -5 -83 -15 -105 -24 -22 -8 -47 -15 -55 -16 -31
0 -122 -71 -136 -107 -22 -52 -4 -91 83 -183 107 -113 225 -205 403 -315 19
-12 49 -30 65 -41 17 -10 41 -25 55 -32 14 -7 41 -23 61 -35 21 -12 76 -44
124 -72 48 -27 104 -60 124 -72 20 -12 53 -31 75 -43 65 -36 123 -104 140
-164 18 -63 20 -107 6 -208 -5 -40 -14 -116 -20 -169 -19 -165 8 -224 125
-280 51 -24 72 -29 140 -29 68 0 88 4 132 28 28 15 62 40 74 56 33 42 37 127
11 214 -12 37 -26 83 -31 102 -5 19 -17 53 -25 75 -9 23 -15 74 -16 118 0 76
0 78 39 120 28 30 58 49 108 67 61 22 83 25 203 24 95 0 148 -5 180 -16 25 -9
68 -21 95 -26 28 -6 64 -18 80 -26 17 -9 36 -16 42 -16 7 0 57 -18 110 -41
120 -50 180 -63 258 -55 73 8 124 40 161 103 22 38 26 57 26 119 0 66 -3 79
-31 123 -37 57 -83 91 -165 122 -57 21 -77 22 -425 25 -202 1 -391 7 -421 12
-161 28 -241 45 -295 62 -33 11 -68 20 -77 20 -24 0 -229 82 -278 111 -8 4
-33 18 -55 29 -48 25 -58 31 -155 95 -41 27 -133 107 -203 177 -70 70 -142
136 -160 147 -38 23 -168 33 -267 21z M6600 2843 c-65 -23 -84 -39 -106 -87
l-24 -51 0 -963 c0 -942 0 -965 20 -1030 17 -55 27 -72 59 -94 81 -58 195 -19
223 74 6 24 16 46 22 50 8 5 63 -18 116 -51 99 -61 252 -101 390 -101 168 0
301 40 450 135 47 29 174 152 203 195 49 73 65 99 86 143 13 26 30 71 38 100
8 28 21 75 29 102 11 38 14 91 11 215 -3 148 -6 173 -30 240 -52 148 -101 226
-206 331 -66 66 -175 149 -195 149 -4 0 -18 7 -32 17 -14 9 -56 27 -92 41 -57
20 -90 25 -229 29 -197 6 -276 -10 -413 -86 -105 -57 -98 -55 -115 -41 -13 11
-15 52 -15 279 0 146 -5 282 -10 302 -20 71 -116 125 -180 102z m790 -907 c47
-7 105 -23 130 -36 108 -56 201 -152 252 -260 30 -62 31 -71 31 -185 0 -113
-2 -125 -32 -194 -59 -138 -155 -235 -291 -293 -48 -20 -71 -23 -185 -23 -116
0 -134 3 -170 23 -22 12 -43 22 -47 22 -18 0 -101 65 -146 114 -76 84 -107
147 -127 259 -17 93 -17 102 0 187 10 50 25 101 34 113 9 12 23 35 31 50 15
31 91 109 137 142 57 42 120 68 193 80 97 17 91 17 190 1z M8940 2827 c-34
-17 -50 -33 -67 -67 l-22 -45 -1 -976 c0 -959 0 -976 21 -1036 16 -48 28 -67
58 -87 53 -37 114 -36 168 4 76 56 74 24 71 1140 -3 958 -3 976 -23 1010 -22
38 -93 80 -135 80 -14 -1 -45 -11 -70 -23z M8335 2830 c-57 -18 -125 -114
-125 -177 0 -18 12 -62 26 -98 22 -54 35 -72 73 -98 95 -66 212 -32 269 77 39
76 38 159 -3 217 -46 65 -73 81 -146 85 -35 2 -78 -1 -94 -6z M11384 2827
c-70 -27 -120 -113 -112 -194 7 -72 46 -143 96 -178 60 -41 137 -42 199 0 53
36 93 119 93 195 0 136 -143 227 -276 177z M8302 2246 l-47 -45 -3 -732 -2
-733 25 -50 c61 -121 190 -129 266 -17 l24 36 0 746 0 746 -30 35 c-39 47 -65
58 -131 58 -52 0 -58 -3 -102 -44z M10050 2283 c-60 -12 -181 -58 -255 -96
-89 -47 -246 -192 -284 -262 -73 -135 -88 -170 -110 -272 -26 -115 -26 -196
-1 -298 11 -44 20 -86 20 -93 0 -16 17 -55 64 -152 92 -191 292 -347 525 -410
65 -18 110 -23 201 -23 142 0 242 24 373 89 130 65 143 60 102 -43 -37 -91
-67 -136 -136 -204 -72 -71 -158 -113 -264 -129 -167 -26 -402 32 -533 131
-29 22 -99 33 -142 24 -41 -9 -96 -65 -105 -106 -4 -17 -4 -55 0 -84 9 -78 45
-120 150 -175 17 -9 39 -21 50 -28 34 -19 133 -62 143 -62 5 0 38 -10 73 -22
57 -19 86 -22 264 -22 197 -1 201 -1 280 28 107 40 233 116 299 182 71 69 143
168 172 234 8 19 21 46 28 60 8 14 17 41 21 60 4 19 16 61 26 92 18 54 19 97
19 778 l0 721 -38 41 c-35 37 -45 42 -95 46 -33 3 -69 -1 -87 -8 -31 -13 -74
-62 -90 -104 -11 -31 -32 -33 -68 -8 -46 32 -124 69 -197 93 -60 20 -92 24
-225 25 -85 1 -166 0 -180 -3z m385 -384 c91 -43 209 -158 250 -244 25 -53 29
-72 29 -155 1 -139 -39 -229 -146 -330 -67 -64 -94 -81 -173 -113 -67 -28 -75
-28 -200 -24 -109 3 -139 8 -185 28 -104 45 -201 129 -250 214 -32 57 -60 165
-59 232 1 147 122 314 282 391 74 35 115 41 257 37 117 -3 129 -5 195 -36z
M11372 2265 c-17 -14 -40 -45 -52 -69 -20 -43 -21 -49 -18 -757 l3 -714 23
-42 c64 -115 184 -125 262 -21 l25 33 0 758 0 758 -42 40 c-40 37 -45 39 -107
39 -54 0 -69 -4 -94 -25z M12260 2276 c-19 -7 -51 -19 -69 -26 -115 -43 -225
-161 -276 -295 -33 -88 -35 -222 -5 -308 11 -31 20 -62 20 -69 1 -43 118 -167
193 -205 75 -39 155 -73 171 -73 8 0 39 -9 68 -19 29 -11 69 -23 88 -27 19 -3
51 -15 70 -25 19 -11 40 -19 47 -19 17 0 63 -70 63 -95 -1 -42 -45 -109 -94
-142 -43 -29 -56 -33 -115 -33 -52 0 -77 6 -116 26 -46 24 -155 125 -155 144
0 4 -18 20 -40 35 -35 24 -46 27 -100 23 -49 -3 -65 -9 -90 -33 -63 -61 -66
-170 -5 -262 180 -271 527 -363 782 -206 67 42 149 126 181 188 32 61 71 204
72 264 0 62 -39 199 -72 248 -76 113 -203 186 -438 252 -91 26 -169 57 -191
77 -29 26 -51 82 -44 114 8 35 67 98 109 115 57 23 111 27 172 11 50 -12 65
-22 99 -62 100 -119 107 -124 172 -124 69 0 92 13 129 76 36 61 37 143 3 197
-77 122 -144 181 -269 236 -47 21 -74 24 -190 28 -99 2 -144 -1 -170 -11z
M13770 2280 c-262 -61 -494 -242 -601 -470 -68 -143 -88 -233 -89 -392 0 -184
39 -322 138 -478 44 -69 216 -242 268 -269 95 -49 172 -83 204 -90 19 -5 62
-16 95 -25 79 -21 261 -21 340 0 33 9 77 20 98 25 20 5 54 18 75 29 20 11 41
20 46 20 21 0 180 115 235 170 33 33 68 60 78 60 11 0 48 -28 84 -62 76 -75
117 -106 184 -142 65 -34 109 -33 166 2 54 35 61 44 84 104 17 47 17 49 -4
105 -19 49 -30 63 -74 92 -107 71 -171 146 -223 263 -27 60 -29 70 -29 203 0
126 3 144 23 180 12 22 22 45 22 51 0 24 93 131 158 182 100 79 107 86 126
144 18 53 18 54 -4 105 -31 72 -77 106 -152 111 -49 4 -64 0 -105 -23 -53 -31
-129 -93 -197 -161 -24 -24 -51 -44 -59 -44 -8 0 -50 35 -93 78 -44 43 -99 90
-124 104 -111 65 -213 108 -305 128 -49 11 -317 11 -365 0z m294 -350 c99 -16
201 -74 277 -158 222 -246 174 -612 -106 -797 -29 -19 -57 -35 -62 -35 -6 0
-32 -10 -59 -22 -41 -18 -67 -21 -164 -21 -98 0 -122 4 -157 22 -23 11 -48 21
-55 21 -13 0 -73 39 -121 77 -39 32 -109 120 -135 171 -22 43 -37 96 -52 186
-10 64 19 214 54 281 70 132 227 255 351 276 62 10 164 10 229 -1z M15334
2246 c-42 -42 -44 -46 -44 -104 0 -59 41 -186 76 -237 8 -11 14 -26 14 -34 0
-7 9 -32 19 -55 42 -89 71 -155 71 -162 0 -4 9 -25 19 -48 41 -86 71 -155 71
-161 0 -3 10 -30 23 -58 13 -29 34 -77 47 -107 12 -30 33 -78 46 -105 13 -28
24 -55 24 -60 0 -6 9 -28 19 -50 55 -115 71 -151 71 -162 0 -7 10 -29 22 -49
28 -48 28 -120 0 -166 -11 -18 -23 -44 -27 -58 -6 -23 -21 -57 -66 -155 -11
-22 -19 -45 -19 -50 0 -6 -11 -30 -23 -55 -42 -79 -51 -132 -37 -199 9 -44 21
-68 45 -91 51 -50 147 -53 196 -7 22 20 79 123 79 142 0 7 17 45 71 160 11 22
19 44 19 49 0 5 9 28 19 50 11 23 33 75 50 116 18 41 38 89 46 105 7 17 28 64
45 105 17 41 37 89 45 105 7 17 28 64 45 105 17 41 40 93 50 116 11 23 20 47
20 53 0 7 9 29 20 49 30 57 70 149 70 162 0 6 9 28 19 48 38 75 71 149 71 161
0 7 9 29 19 49 38 75 71 149 71 161 0 7 8 29 19 49 63 125 104 240 103 288 -2
43 -36 99 -76 124 -51 31 -133 28 -178 -7 -32 -25 -98 -142 -98 -174 0 -5 -9
-27 -19 -47 -38 -75 -71 -149 -71 -161 0 -7 -9 -29 -19 -49 -11 -20 -31 -66
-46 -102 -15 -36 -35 -82 -46 -102 -10 -20 -19 -42 -19 -48 0 -10 -23 -65 -71
-166 -10 -23 -19 -44 -19 -48 0 -4 -11 -31 -24 -59 -13 -29 -26 -60 -29 -69
-11 -33 -34 -18 -61 40 -15 31 -36 74 -47 94 -10 20 -19 42 -19 49 0 6 -9 30
-19 53 -41 86 -71 155 -71 161 0 6 -30 75 -71 161 -10 23 -19 44 -19 48 0 7
-29 73 -71 162 -10 23 -19 48 -19 55 0 8 -7 24 -15 36 -9 12 -22 40 -30 62
-18 52 -53 99 -87 117 -15 8 -53 14 -84 14 -54 0 -59 -2 -100 -44z M17420
2276 c-25 -8 -63 -19 -85 -25 -93 -27 -240 -115 -323 -195 -47 -44 -152 -179
-152 -194 0 -5 -8 -20 -18 -33 -39 -52 -91 -227 -107 -364 -9 -77 28 -290 66
-375 83 -186 178 -301 335 -406 45 -30 85 -54 90 -54 5 0 26 -9 46 -20 21 -11
55 -24 75 -29 21 -5 65 -16 98 -25 79 -21 261 -21 340 0 33 9 78 20 99 25 111
27 315 160 389 254 15 19 34 35 42 35 8 0 36 -21 62 -48 136 -135 238 -197
310 -189 49 5 128 63 144 104 13 35 11 124 -4 153 -7 14 -46 52 -87 85 -109
87 -146 129 -190 215 -65 126 -64 335 2 463 34 65 110 151 181 203 87 64 101
86 105 163 3 56 0 71 -20 101 -13 19 -39 45 -58 58 -29 20 -45 23 -95 20 -51
-3 -70 -11 -130 -50 -39 -26 -100 -76 -135 -112 -36 -36 -72 -66 -80 -66 -8 0
-43 29 -78 64 -94 96 -211 169 -362 224 -57 21 -86 25 -240 28 -129 3 -187 0
-220 -10z m416 -381 c61 -29 95 -54 150 -109 84 -85 124 -163 149 -287 17 -84
17 -87 -4 -180 -21 -89 -54 -168 -90 -212 -53 -64 -178 -167 -204 -167 -4 0
-29 -10 -55 -21 -69 -32 -255 -32 -326 -1 -27 12 -53 22 -59 22 -36 0 -190
133 -217 187 -8 16 -20 35 -26 43 -29 35 -64 172 -64 249 0 164 95 344 225
429 115 75 183 93 336 87 98 -3 113 -7 185 -40z M19099 2263 c-17 -15 -40 -45
-50 -68 -17 -38 -19 -82 -19 -729 0 -661 1 -692 20 -756 17 -58 26 -71 60 -94
56 -37 113 -36 168 5 26 19 46 44 53 67 8 25 15 175 20 452 4 228 11 433 17
455 5 22 22 64 37 93 34 64 138 180 180 199 16 8 41 20 55 28 14 7 62 19 107
25 106 14 143 30 178 77 26 33 29 45 30 116 l0 78 -43 41 -43 40 -117 -4
c-129 -4 -178 -17 -297 -82 -11 -6 -32 -20 -47 -30 -34 -23 -66 -13 -74 22 -4
15 -22 42 -41 60 -31 29 -40 32 -98 32 -54 0 -68 -4 -96 -27z M4425 2169 c-38
-13 -70 -33 -88 -52 l-27 -32 6 -170 c10 -270 -13 -369 -95 -418 -35 -20 -196
-24 -299 -6 -103 18 -161 -9 -215 -102 -48 -84 -48 -205 1 -255 56 -56 60 -57
248 -58 172 -1 176 -2 195 -25 24 -30 26 -132 3 -176 -18 -35 -54 -183 -54
-224 0 -16 7 -44 15 -63 15 -38 77 -98 100 -98 7 0 35 -11 62 -24 86 -43 125
-51 161 -32 50 26 82 101 97 226 20 163 42 268 62 295 18 24 89 55 128 55 42
0 114 -32 150 -67 20 -20 62 -70 93 -112 126 -172 228 -223 335 -170 51 26 94
64 114 102 19 37 19 127 -1 165 -18 34 -119 129 -156 146 -91 42 -190 133
-190 175 0 33 7 42 50 68 24 14 66 25 130 32 122 14 202 39 241 77 29 27 31
32 26 86 -3 35 -13 68 -26 87 -12 16 -21 33 -21 38 0 5 -21 30 -47 55 -54 53
-127 88 -181 88 -38 0 -157 -33 -176 -49 -20 -16 -142 -61 -166 -61 -73 0
-133 103 -152 260 -18 156 -48 202 -156 239 -76 26 -91 26 -167 0z"/>
</g>
</svg>
